<svg xmlns="http://www.w3.org/2000/svg" xmlns:xlink="http://www.w3.org/1999/xlink" viewBox="0 0 216.2 136.06"><defs><style>.cls-1{fill:url(#linear-gradient);}.cls-2{fill:url(#linear-gradient-2);}.cls-3{fill:url(#linear-gradient-3);}.cls-4{fill:url(#linear-gradient-4);}.cls-5{fill:url(#linear-gradient-5);}.cls-6{fill:url(#linear-gradient-6);}.cls-7{fill:url(#linear-gradient-7);}.cls-8{fill:url(#linear-gradient-8);}.cls-9{fill:url(#linear-gradient-10);}.cls-10{fill:url(#linear-gradient-11);}</style><linearGradient id="linear-gradient" x1="152.59" y1="136.06" x2="152.59" y2="83.95" gradientUnits="userSpaceOnUse"><stop offset="0.01" stop-color="#70565e"/><stop offset="0.02" stop-color="#70565e"/><stop offset="0.07" stop-color="#70565e"/><stop offset="0.1" stop-color="#918186"/><stop offset="0.13" stop-color="#afa7aa"/><stop offset="0.16" stop-color="#c1bfc0"/><stop offset="0.18" stop-color="#c8c8c8"/><stop offset="0.2" stop-color="#c4c3c3"/><stop offset="0.23" stop-color="#b8b3b5"/><stop offset="0.26" stop-color="#a49a9d"/><stop offset="0.29" stop-color="#89767c"/><stop offset="0.32" stop-color="#70565e"/><stop offset="0.36" stop-color="#7b5b65"/><stop offset="0.43" stop-color="#996a79"/><stop offset="0.51" stop-color="#bf7d93"/><stop offset="0.51" stop-color="#c5899d"/><stop offset="0.53" stop-color="#d4a8b7"/><stop offset="0.55" stop-color="#e2c4ce"/><stop offset="0.57" stop-color="#eddae0"/><stop offset="0.59" stop-color="#f5ebee"/><stop offset="0.63" stop-color="#fbf6f8"/><stop offset="0.67" stop-color="#fefdfd"/><stop offset="0.79" stop-color="#fff"/><stop offset="0.81" stop-color="#fcf9fa"/><stop offset="0.83" stop-color="#f3e8ec" stop-opacity="0.98"/><stop offset="0.86" stop-color="#e6ccd4" stop-opacity="0.96"/><stop offset="0.89" stop-color="#d2a5b4" stop-opacity="0.93"/><stop offset="0.92" stop-color="#bf7e93" stop-opacity="0.9"/><stop offset="0.95" stop-color="#bd7d91" stop-opacity="0.9"/><stop offset="0.96" stop-color="#b3788b" stop-opacity="0.91"/><stop offset="0.97" stop-color="#a47080" stop-opacity="0.93"/><stop offset="0.98" stop-color="#8d6471" stop-opacity="0.96"/><stop offset="0.99" stop-color="#71555d"/><stop offset="0.99" stop-color="#70555d"/></linearGradient><linearGradient id="linear-gradient-2" x1="189.49" y1="64.98" x2="189.49" y2="0" xlink:href="#linear-gradient"/><linearGradient id="linear-gradient-3" x1="105.88" y1="33.43" x2="105.88" y2="0.02" xlink:href="#linear-gradient"/><linearGradient id="linear-gradient-4" x1="105.43" y1="38.64" x2="105.43" y2="0.02" xlink:href="#linear-gradient"/><linearGradient id="linear-gradient-5" x1="134.94" y1="108.89" x2="134.94" y2="0" xlink:href="#linear-gradient"/><linearGradient id="linear-gradient-6" x1="100.96" y1="89.32" x2="100.96" y2="0.02" xlink:href="#linear-gradient"/><linearGradient id="linear-gradient-7" x1="18.73" y1="135.99" x2="18.73" y2="0.02" xlink:href="#linear-gradient"/><linearGradient id="linear-gradient-8" x1="31" y1="0.05" x2="31" y2="0.02" xlink:href="#linear-gradient"/><linearGradient id="linear-gradient-10" x1="69.49" y1="135.99" x2="69.49" y2="0.02" xlink:href="#linear-gradient"/><linearGradient id="linear-gradient-11" x1="0" y1="68.03" x2="216.2" y2="68.03" xlink:href="#linear-gradient"/></defs><title>Asset 1</title><g id="Layer_2" data-name="Layer 2"><g id="Layer_1-2" data-name="Layer 1"><path class="cls-1" d="M141.46,84V136l7.42,0V95.9Zm17.82,28.65-2.76-4.39-.22-.36v28.21l7.42,0V119.7Z"/><path class="cls-2" d="M207.47,0l-36,57.94,2.39,3.83,1.71,2.75c.1.15.18.3.27.46L216.2,0ZM191.09,2a16,16,0,0,0-5.7,5.44L162.78,43.87l4.37,7L198.73,0A15.72,15.72,0,0,0,191.09,2Z"/><path class="cls-3" d="M109.28,18.83,108.37,24l5.86,9.43.92-5.15ZM97.61,0h-.1l-.89,5.05,5.88,9.48.91-5.19Z"/><path class="cls-4" d="M109.28,18.83,108.37,24l-.92,5.18h0l5.88,9.45.9-5.19v0l.92-5.15ZM97.61,0h-.1l-.89,5.05-.91,5.2,5.88,9.46.91-5.18.91-5.19Z"/><path class="cls-5" d="M171.8,81.56l-6.58,27.33-2.74-4.38-7.42-12L115.15,28.28l-5.87-9.45-5.87-9.47L97.61,0l0,0h19.93a17.52,17.52,0,0,1,14.89,8.28l26.24,42.24,4.37,7,4.92,7.92,1.71,2.75c.19.32.39.65.56,1l.12.21A17.52,17.52,0,0,1,171.8,81.56Z"/><path class="cls-6" d="M97.61,0h-.1l-.89,5.05-.91,5.2L86.77,61.13l5.89,9.4,8.93-50.8.91-5.18.91-5.19Zm11.67,18.81L108.37,24l-.92,5.18h0L98.53,79.92l5.88,9.4,8.92-50.68.9-5.19v0l.92-5.15Z"/><path class="cls-7" d="M31.59,42.06,15.08,136a8.92,8.92,0,0,0,5.76-2.1,9,9,0,0,0,3.07-5.32l13.56-77.1ZM19.83,23.19,0,136H7.53L25.7,32.63ZM30.55,0c.3,0,.6,0,.89,0V0Z"/><path class="cls-8" d="M30.55,0c.3,0,.6,0,.89,0V0Z"/><path class="cls-8" d="M30.55,0c.3,0,.6,0,.89,0V0Z"/><path class="cls-9" d="M125.35,136H108.19a17.5,17.5,0,0,1-14.86-8.25l-2.5-4L85,114.32l-5.87-9.42L39.29,41.13l-5.88-9.42-5.89-9.42-5.87-9.43L13.63,0H30.55c.3,0,.6,0,.89,0a17.2,17.2,0,0,1,7.19,2,17.46,17.46,0,0,1,6.51,5.84l.27.41L85,71.45l5.89,9.4,5.88,9.38,5.88,9.41Z"/><path class="cls-10" d="M141.46,84V136l7.42,0V95.9Zm17.82,28.65-2.76-4.39-.22-.36v28.21l7.42,0V119.7Z"/><path class="cls-10" d="M207.47,0l-36,57.94,2.39,3.83,1.71,2.75c.1.15.18.3.27.46L216.2,0ZM191.09,2a16,16,0,0,0-5.7,5.44L162.78,43.87l4.37,7L198.73,0A15.72,15.72,0,0,0,191.09,2Z"/><path class="cls-10" d="M109.28,18.83,108.37,24l5.86,9.43.92-5.15ZM97.61,0h-.1l-.89,5.05,5.88,9.48.91-5.19Z"/><path class="cls-10" d="M109.28,18.83,108.37,24l-.92,5.18h0l5.88,9.45.9-5.19v0l.92-5.15ZM97.61,0h-.1l-.89,5.05-.91,5.2,5.88,9.46.91-5.18.91-5.19Z"/><path class="cls-10" d="M171.8,81.56l-6.58,27.33-2.74-4.38-7.42-12L115.15,28.28l-5.87-9.45-5.87-9.47L97.61,0l0,0h19.93a17.52,17.52,0,0,1,14.89,8.28l26.24,42.24,4.37,7,4.92,7.92,1.71,2.75c.19.32.39.65.56,1l.12.21A17.52,17.52,0,0,1,171.8,81.56Z"/><path class="cls-10" d="M97.61,0h-.1l-.89,5.05-.91,5.2L86.77,61.13l5.89,9.4,8.93-50.8.91-5.18.91-5.19Zm11.67,18.81L108.37,24l-.92,5.18h0L98.53,79.92l5.88,9.4,8.92-50.68.9-5.19v0l.92-5.15Z"/><path class="cls-10" d="M31.59,42.06,15.08,136a8.92,8.92,0,0,0,5.76-2.1,9,9,0,0,0,3.07-5.32l13.56-77.1ZM19.83,23.19,0,136H7.53L25.7,32.63ZM30.55,0c.3,0,.6,0,.89,0V0Z"/><path class="cls-10" d="M30.55,0c.3,0,.6,0,.89,0V0Z"/><path class="cls-10" d="M30.55,0c.3,0,.6,0,.89,0V0Z"/><path class="cls-10" d="M125.35,136H108.19a17.5,17.5,0,0,1-14.86-8.25l-2.5-4L85,114.32l-5.87-9.42L39.29,41.13l-5.88-9.42-5.89-9.42-5.87-9.43L13.63,0H30.55c.3,0,.6,0,.89,0a17.2,17.2,0,0,1,7.19,2,17.46,17.46,0,0,1,6.51,5.84l.27.41L85,71.45l5.89,9.4,5.88,9.38,5.88,9.41Z"/></g></g></svg>